Patient4_TMGait_0pt4_02_left_11_EMG.mot
version=1
nRows=13
nColumns=33
inDegrees=no
endheader
time	1LAddLong	2LGlutMax	3LGlutMed	4LIliopsoas	5LSemiMemb	6LBicFemLong	7LRecFem	8LVastMed	9LVastLat	10LGasMed	11LTibAnt	12lTibPost	13LPeroneusLong	14LSol	15LExtDigLong	16LFlexDigLong	17RAddLong	18RGlutMax	19RGlutMed	20RIliopsoas	21RSemiMemb	22RBicFemLong	23RRecFem	24RVastMed	25RVastLat	26RGasMed	27RTibAnt	28RTibPost	29RPeroneusLong	30RSol	31RExtDigLong	32RFlexDigLong
15.615	0.005951	0.067444	-0.05722	0.00473	0.000305	-0.016785	0.20645	-0.003204	0.007629	-0.001373	0.009918	0.00412	-0.07843	-0.003967	0.00885	-0.003204	0.042267	-0.24765	-0.12543	-0.16419	0.10864	0.017242	-0.23224	-0.13351	0.054779	0.000763	0.044861	-0.006561	0.010223	-0.08728	-0.001221	0.009308
15.616	-0.000153	0.051575	-0.082092	0.006104	-0.005188	0.012665	0.23224	-0.00061	-0.001984	-0.00885	0.007172	0.00473	-0.069275	0.032196	0.026398	-0.000916	-0.006256	-0.20248	-0.40741	-0.13397	0.038757	-0.036163	-0.19058	-0.032959	0.062408	-0.00885	0.018005	-0.004272	-0.027008	-0.11093	-0.002899	0.012665
15.617	0.002899	0.011749	-0.092926	0.014343	0.001526	0.0383	0.27741	-0.003204	0.015564	0.024109	-0.001373	0.006256	0.15198	0.023346	0.00885	0.00473	-0.031128	-0.19333	-0.14206	-0.058594	0.038757	-0.065308	-0.019531	-0.037079	-0.002441	-0.005798	-0.018311	-0.002594	-0.093231	-0.10391	-0.001984	0.008087
15.618	-0.007935	0.018005	-0.15686	0.021362	-0.004272	0.015411	0.27771	0.00412	0.018463	0.06546	0.044861	0.010681	0.083771	-0.029755	-0.004883	-0.004578	-0.009003	-0.10513	-0.024109	0.025635	0.071564	-0.015869	0.028687	-0.010223	-0.003052	-0.003967	0.07019	-0.001984	-0.076447	-0.061493	-0.004578	0.004425
15.619	-0.000916	0.050354	-0.17731	-0.011292	-0.010529	-0.00824	0.29205	0.002594	0.022125	0.16678	0.009155	0.005188	-0.050507	-0.055389	0.001526	-0.002747	-0.046082	0.068207	-0.28656	0.12436	0.56763	0.011749	-0.015717	0.11429	0.043945	0.003204	0.071716	-0.003204	-0.013428	-0.046844	-0.003815	0.009613
15.62	0.005798	0.078278	-0.20111	-0.003662	-0.00885	-0.081329	0.30243	-0.001831	0.02594	0.31937	0.044861	0.002594	-0.16769	-0.059814	0.003357	-0.005188	-0.032349	0.14343	-0.87906	0.054474	0.69046	0.009003	-0.007019	0.13321	0.14801	-0.001221	0.19134	0.000916	-0.038757	-0.076752	-0.00412	0.003204
15.621	0.000916	0.10757	-0.08606	-0.008545	-0.001984	-0.11795	0.29373	0.009155	0.019684	0.40878	0.004272	0.005951	-0.22156	-0.075378	0.024109	-0.001831	-0.00351	0.24078	-0.2829	-0.10788	0.50827	-0.023499	-0.00824	0.12054	0.27069	-0.002441	0.224	0.000916	-0.098267	-0.095673	-0.00061	-0.002747
15.622	0.001526	0.093536	0.098877	0.015717	-0.004578	-0.12772	0.29953	0.063324	0.029449	0.28076	0.0177	0.005341	-0.038147	-0.12436	0.023346	0.009003	0.011597	0.33493	0.73532	-0.085754	0.38773	-0.043945	0.01236	-0.014343	0.30884	-0.003662	0.17609	0.001526	-0.08194	-0.065613	-0.00885	0.009003
15.623	0.009003	0.10513	-0.009766	0.003052	0.002136	-0.12787	0.30838	0.013275	0.015411	0.097198	0.002899	0.002289	-0.18585	-0.16083	0.039215	0.010986	0.036469	0.34149	0.41534	0.061798	0.30655	-0.077209	0.075684	-0.050354	0.29068	-0.002594	-0.037079	-0.001373	-0.03952	-0.086517	-0.00473	0.003815
15.624	0.006866	0.088501	0.031128	0.002594	-0.00946	-0.072327	0.25467	0.003815	0.009308	0.12085	-0.003815	-0.003662	-0.20737	-0.18173	0.020905	0.018158	0.034027	0.31128	0.18372	0.10696	0.23773	-0.086517	0.097046	-0.087433	0.28564	-0.001984	-0.073242	0.001373	-0.04837	-0.070038	-0.001373	0.003357
15.625	-0.001373	0.08606	0.006866	0.007477	-0.014954	0.01297	0.24628	-0.00061	0.019836	0.50613	0.005188	-0.005188	-0.11292	-0.1442	0.020447	0.016937	0.044556	0.38254	-0.30472	0.049744	0.18005	-0.042572	0.02594	-0.010681	0.25192	-0.001678	-0.010223	0.002899	-0.054626	-0.043335	-0.001526	0.00412
15.626	0.00824	0.13077	0.012665	0.004425	-0.032043	0.030975	0.24857	0.003967	0.007019	0.45532	-0.01236	-0.014191	-0.006256	-0.12238	0.019684	0.008392	0.005951	0.45059	-0.16815	-0.003967	0.23086	-0.020142	-0.23392	-0.12222	0.14511	-0.001068	0.00824	0	-0.041962	-0.017548	-0.005188	0.001678
15.627	0.001221	0.13565	0.023346	0.002289	-0.006409	0.028839	0.2655	-0.002594	0.004272	0.47043	-0.006104	0.03952	0.13473	-0.056152	-0.039978	0.013428	0.002136	0.51666	-0.33661	-0.012512	0.42191	-0.021515	-0.32745	-0.031433	0.02243	-0.002899	0.037384	0.000305	-0.062256	0.036316	-0.001984	0.002594
